<svg id="Group_2" data-name="Group 2" xmlns="http://www.w3.org/2000/svg" xmlns:xlink="http://www.w3.org/1999/xlink" width="104.909" height="130.668" viewBox="0 0 104.909 130.668">
  <defs>
    <clipPath id="clip-path">
      <rect id="Rectangle_1" data-name="Rectangle 1" width="104.909" height="130.668" fill="none"/>
    </clipPath>
  </defs>
  <g id="Group_1" data-name="Group 1" clip-path="url(#clip-path)">
    <path id="Path_1" data-name="Path 1" d="M16.735,62.837A108.07,108.07,0,0,0,24.7,70.415c5.692,4.445,11.64,4.291,16.925-.658,3.13-2.931,5.629-6.538,8.39-9.859a13.519,13.519,0,0,0,1.342-1.959,8.067,8.067,0,0,1,6.715-4.527C64.8,52.641,69.8,46.1,69.666,39.255a14.351,14.351,0,1,0-25.144,9.653c.295.349.58.706,1.11,1.353L33.8,53.8c0-2.17.031-4.105-.006-6.039-.088-4.566-1.373-8.463-6.178-10.362,4.01-9.379,7.962-18.626,11.917-27.872.892-2.085,1.8-4.162,2.687-6.25A4.96,4.96,0,0,1,47.16.009c5.5,0,10.994.017,16.49-.009A5.211,5.211,0,0,1,68.9,3.517q12.135,28.36,24.336,56.692l11.988,27.909c1.215,2.829.2,4.445-2.827,4.452-6.976.015-13.953-.018-20.93.018A5.181,5.181,0,0,1,76.4,89.247c-.974-2.106-1.894-4.237-2.866-6.344a5.435,5.435,0,0,0-5.342-3.476q-12.685.055-25.37,0a5.3,5.3,0,0,0-5.339,3.426c-1.012,2.262-2.1,4.491-3.146,6.738a4.808,4.808,0,0,1-4.764,3c-6.924-.03-13.847,0-20.771-.016-3.164-.006-4.171-1.578-2.92-4.491Q11.03,76.09,16.177,64.1c.2-.476.419-.947.558-1.261" transform="translate(-3.091 0)" fill="#e31d32"/>
    <path id="Path_2" data-name="Path 2" d="M120.362,79.3a5.875,5.875,0,1,1-5.924,5.872,5.774,5.774,0,0,1,5.924-5.872" transform="translate(-65.993 -45.729)" fill="#e31d32"/>
    <text id="BIGKUBBAS" transform="translate(3.454 113.299)" fill="#fff" font-size="18" font-family="Roboto-Bold, Roboto" font-weight="700"><tspan x="0" y="0">BIGKUBBAS</tspan></text>
    <text id="Personal_Trainer" data-name="Personal Trainer" transform="translate(14.454 127.668)" fill="#fff" font-size="11" font-family="Roboto-Thin, Roboto" font-weight="200"><tspan x="0" y="0" letter-spacing="-0.006em">P</tspan><tspan y="0">ersonal </tspan><tspan y="0" letter-spacing="-0.036em">T</tspan><tspan y="0" letter-spacing="-0.019em">r</tspan><tspan y="0">ainer</tspan></text>
  </g>
</svg>
